<svg width="20" height="20" viewBox="0 0 20 20" fill="none" xmlns="http://www.w3.org/2000/svg">
  <path d="M10.5 2c-2.2 0-4 1.8-4 4 0 .9.3 1.7.8 2.4L8.2 10l1.1-1.6c.5-.7.8-1.5.8-2.4 0-1.1-.9-2-2-2s-2 .9-2 2c0 .3 0 .6.1.9l.9 1.3 1.1-1.6c.5-.7.8-1.5.8-2.4 0-1.1-.9-2-2-2z" fill="#D32323"/>
  <path d="M12.5 8c-1.1 0-2 .9-2 2s.9 2 2 2 2-.9 2-2-.9-2-2-2zm0 3c-.6 0-1-.4-1-1s.4-1 1-1 1 .4 1 1-.4 1-1 1z" fill="#D32323"/>
  <path d="M6.5 12c-1.1 0-2 .9-2 2s.9 2 2 2 2-.9 2-2-.9-2-2-2zm0 3c-.6 0-1-.4-1-1s.4-1 1-1 1 .4 1 1-.4 1-1 1z" fill="#D32323"/>
</svg>
